<?xml version="1.0" encoding="utf-8"?>
<!-- Generator: Adobe Illustrator 16.0.0, SVG Export Plug-In . SVG Version: 6.00 Build 0)  -->
<!DOCTYPE svg PUBLIC "-//W3C//DTD SVG 1.1//EN" "http://www.w3.org/Graphics/SVG/1.1/DTD/svg11.dtd">
<svg version="1.1" id="Capa_1" xmlns="http://www.w3.org/2000/svg" xmlns:xlink="http://www.w3.org/1999/xlink" x="0px" y="0px"
	 width="256px" height="256px" viewBox="0 0 256 256" enable-background="new 0 0 256 256" xml:space="preserve">
<g>
	<g>
		<path fill-rule="evenodd" clip-rule="evenodd" fill="#FEFEFE" d="M1.407,254.459c0-81.92,0-163.84,0-245.76c82,0,164,0,246,0
			c0,81.92,0,163.84,0,245.76C165.407,254.459,83.407,254.459,1.407,254.459z M37.295,97.343c-0.315,0.545-0.599,0.965-0.811,1.418
			c-0.267,0.572-0.467,1.176-0.713,1.758c-1.816,4.304-3.649,8.601-5.453,12.91c-1.74,4.159-3.453,8.329-5.176,12.495
			c-1.118,2.704-2.228,5.412-3.354,8.113c-1.263,3.032-2.546,6.056-3.808,9.089c-0.684,1.645-1.351,3.296-2,4.954
			c-0.118,0.301-0.116,0.648-0.171,0.985c2.528,1.004,4.912,1.958,7.3,2.898c4.708,1.854,9.42,3.694,14.127,5.55
			c3.605,1.421,7.205,2.854,10.805,4.288c5.403,2.153,10.802,4.316,16.205,6.469c3.86,1.538,7.723,3.07,11.587,4.599
			c3.898,1.542,7.804,3.064,11.698,4.616c3.928,1.565,7.843,3.162,11.769,4.732c1.945,0.777,3.897,1.54,5.858,2.279
			c0.659,0.248,1.347,0.556,2.03,0.58c3.388,0.12,6.778,0.203,10.167,0.211c14.799,0.035,29.598,0.033,44.396,0.068
			c0.907,0.002,1.719-0.204,2.518-0.582c1.254-0.594,2.509-1.189,3.775-1.756c4.268-1.909,8.544-3.797,12.81-5.71
			c2.822-1.266,5.629-2.566,8.449-3.837c4.589-2.067,9.186-4.115,13.772-6.185c3.434-1.55,6.866-3.105,10.284-4.689
			c4.967-2.302,9.925-4.625,14.879-6.953c2.91-1.368,5.802-2.777,8.715-4.138c0.48-0.225,0.713-0.526,0.886-1.021
			c0.524-1.49,1.129-2.953,1.689-4.431c0.097-0.255,0.18-0.529,0.192-0.799c0.09-1.987,0.258-3.979,0.214-5.964
			c-0.06-2.7-0.283-5.396-0.443-8.094c-0.156-2.659-0.319-5.316-0.483-7.974c-0.157-2.538-0.321-5.076-0.478-7.614
			c-0.164-2.658-0.32-5.316-0.483-7.974c-0.156-2.538-0.319-5.076-0.479-7.614c-0.161-2.578-0.319-5.156-0.479-7.734
			c-0.159-2.538-0.338-5.075-0.474-7.615c-0.116-2.187-0.169-4.377-0.282-6.564c-0.03-0.573-0.184-1.14-0.291-1.775
			c-2.126,0-4.112,0-6.103,0c0.277-3.024,0.272-7.306-0.004-8.28c-28.137,0-56.274,0-84.554,0c0,13.607,0,27.137,0,40.662
			c-0.256,0.031-0.372,0.057-0.488,0.057c-12.199,0.002-24.398,0.006-36.597-0.008c-0.463,0-0.951-0.106-1.385-0.273
			c-4.985-1.914-9.966-3.839-14.94-5.781c-6.008-2.345-12.003-4.721-18.012-7.062c-5.971-2.325-11.952-4.625-17.931-6.93
			c-0.614-0.237-1.244-0.436-1.864-0.651c-1.108,1.105-1.297,2.563-1.983,3.755c-0.241,0.419-0.29,0.948-0.425,1.421
			c0.389,0.283,0.671,0.487,1.002,0.727c-2.751,2.098-5.452,4.157-8.202,6.254C42.2,99.29,39.853,98.358,37.295,97.343z"/>
		<path fill-rule="evenodd" clip-rule="evenodd" fill="#B1AD9E" d="M37.295,97.343c2.558,1.016,4.905,1.947,7.261,2.882
			c2.75-2.097,5.451-4.156,8.202-6.254c-0.331-0.239-0.613-0.444-1.002-0.727c0.135-0.474,0.184-1.002,0.425-1.421
			c0.686-1.192,0.875-2.65,1.983-3.755c0.62,0.215,1.25,0.414,1.864,0.651c5.979,2.305,11.96,4.605,17.931,6.93
			c6.009,2.34,12.004,4.716,18.012,7.062c4.974,1.942,9.955,3.867,14.94,5.781c0.434,0.167,0.922,0.272,1.385,0.273
			c12.199,0.014,24.398,0.01,36.597,0.008c0.116,0,0.232-0.026,0.488-0.057c0-13.524,0-27.055,0-40.662c28.279,0,56.417,0,84.554,0
			c0.276,0.974,0.281,5.256,0.004,8.28c1.99,0,3.977,0,6.103,0c0.107,0.636,0.261,1.202,0.291,1.775
			c0.113,2.187,0.166,4.377,0.282,6.564c0.136,2.54,0.314,5.077,0.474,7.615c0.16,2.578,0.318,5.156,0.479,7.734
			c0.159,2.538,0.322,5.076,0.479,7.614c0.163,2.658,0.319,5.316,0.483,7.974c0.156,2.538,0.32,5.076,0.478,7.614
			c0.164,2.658,0.327,5.315,0.483,7.974c0.16,2.697,0.384,5.394,0.443,8.094c0.044,1.985-0.124,3.977-0.214,5.964
			c-0.013,0.27-0.096,0.544-0.192,0.799c-0.561,1.478-1.165,2.94-1.689,4.431c-0.173,0.494-0.405,0.796-0.886,1.021
			c-2.913,1.36-5.805,2.77-8.715,4.138c-4.954,2.328-9.912,4.651-14.879,6.953c-3.418,1.584-6.851,3.14-10.284,4.689
			c-4.587,2.069-9.184,4.117-13.772,6.185c-2.82,1.271-5.627,2.571-8.449,3.837c-4.266,1.913-8.542,3.801-12.81,5.71
			c-1.267,0.566-2.521,1.162-3.775,1.756c-0.799,0.378-1.61,0.584-2.518,0.582c-14.799-0.035-29.598-0.033-44.396-0.068
			c-3.389-0.008-6.78-0.091-10.167-0.211c-0.684-0.024-1.372-0.332-2.03-0.58c-1.96-0.739-3.913-1.502-5.858-2.279
			c-3.926-1.57-7.841-3.167-11.769-4.732c-3.894-1.552-7.8-3.074-11.698-4.616c-3.864-1.528-7.727-3.061-11.587-4.599
			c-5.403-2.152-10.802-4.315-16.205-6.469c-3.6-1.435-7.2-2.867-10.805-4.288c-4.707-1.855-9.419-3.696-14.127-5.55
			c-2.388-0.94-4.771-1.895-7.3-2.898c0.055-0.337,0.053-0.685,0.171-0.985c0.65-1.658,1.317-3.31,2-4.954
			c1.262-3.033,2.545-6.057,3.808-9.089c1.125-2.701,2.235-5.409,3.354-8.113c1.723-4.166,3.436-8.336,5.176-12.495
			c1.804-4.309,3.637-8.606,5.453-12.91c0.246-0.583,0.446-1.186,0.713-1.758C36.696,98.308,36.979,97.888,37.295,97.343z
			 M70.035,95.114c0.159,0.081,0.317,0.161,0.476,0.242c0.238,0.083,0.475,0.166,0.713,0.249c0.229,0.255,0.458,0.509,0.726,0.808
			c-0.901,2.502-2.099,4.982-2.967,7.539c1.356,1.405,2.604,2.699,3.881,4.021c1.342-3.446,2.667-6.849,4.023-10.333
			c-1.426-0.556-2.738-1.078-4.059-1.578c-0.512-0.193-1.042-0.336-1.564-0.502c-0.24-0.08-0.481-0.158-0.722-0.237
			c-0.16-0.079-0.32-0.158-0.48-0.237c-0.126-0.069-0.252-0.138-0.379-0.207c-0.021,0.053-0.042,0.105-0.062,0.158
			C69.759,95.061,69.896,95.087,70.035,95.114z M68.841,94.626c0.122,0.071,0.244,0.142,0.365,0.213
			c0.021-0.052,0.042-0.104,0.064-0.156c-0.139-0.024-0.277-0.048-0.416-0.072c-0.122-0.071-0.244-0.142-0.365-0.212
			c-0.021,0.052-0.042,0.104-0.063,0.156C68.564,94.578,68.703,94.602,68.841,94.626z M221.263,140.479
			c-0.036-1.961,0.099-3.678,0.696-5.353c0.655-1.836,1.408-3.624,2.371-5.319c0.174-0.307,0.413-0.579,0.643-0.85
			c1.362-1.607,3.036-2.761,4.948-3.659c2.015-0.945,3.967-1.975,6.246-2.163c0.795-0.066,1.57-0.367,2.307-0.548
			c-0.141-1.822-0.285-3.519-0.4-5.218c-0.171-2.497-0.33-4.994-0.477-7.493c-0.178-3.017-0.334-6.035-0.506-9.052
			c-0.013-0.223-0.081-0.443-0.115-0.622c-0.704,0-1.33,0-2.08,0c0,0.636,0,1.211,0,1.762c-0.464,0.082-0.801,0.142-1.212,0.215
			c0,4.603,0,9.147,0,13.818c-3.618,0-7.152,0-10.766,0c0,0.676,0,1.224,0,1.881c-2.362,0.888-4.663,1.851-7.028,2.616
			c-2.49,0.806-4.695,2.11-6.843,3.536c-1.684,1.118-3.313,2.321-4.939,3.522c-0.702,0.518-1.41,1.06-1.988,1.705
			c-1.083,1.21-2.098,2.483-3.097,3.765c-1.93,2.472-3.857,4.946-5.722,7.466c-0.456,0.617-0.942,0.992-1.667,1.224
			c-2.298,0.732-4.566,1.557-6.857,2.31c-1.802,0.592-3.593,1.256-5.438,1.666c-3.39,0.754-6.843,1.229-10.219,2.036
			c-3.492,0.835-7.038,1.258-10.586,1.295c-7.056,0.074-14.126,0.454-21.169-0.385c-1.731-0.206-3.488-0.247-5.201-0.545
			c-2.837-0.494-5.671-1.043-8.464-1.739c-2.909-0.726-5.771-1.639-8.646-2.497c-5.148-1.537-10.024-3.737-14.775-6.213
			c-2.223-1.159-4.271-2.595-6.084-4.36c-1.167-1.138-2.465-2.141-3.658-3.254c-1.139-1.063-2.276-2.141-3.31-3.305
			c-1.769-1.992-3.473-4.042-5.172-6.094c-1.368-1.652-2.704-3.331-4.023-5.022c-1.245-1.594-2.418-3.245-3.682-4.823
			c-1.018-1.272-2.074-2.522-3.204-3.695c-1.767-1.835-3.473-3.769-5.451-5.353c-3.443-2.758-7.194-5.089-11.193-6.99
			c-0.384-0.183-0.79-0.321-1.204-0.487c-2.765,2.113-5.466,4.179-8.15,6.231c0.152,0.331,0.305,0.573,0.381,0.838
			c1.703,5.919,3.394,11.841,5.103,17.759c0.096,0.333,0.297,0.65,0.505,0.933c1.388,1.884,2.791,3.756,4.189,5.632
			c1.108,1.485,2.103,3.041,3.526,4.297c0.951,0.839,1.94,1.483,3.126,1.867c0.263,0.085,0.531,0.16,0.787,0.265
			c0.679,0.278,1.353,0.569,2.053,0.865c-0.234,0.606-0.416,1.08-0.62,1.608c0.3,0.235,0.569,0.446,0.854,0.669
			c0.285-0.613,0.531-1.146,0.796-1.719c3.727-0.896,7.442-1.789,11.327-2.722c0.284,0.342,0.583,0.717,0.896,1.079
			c1.51,1.742,2.941,3.563,4.559,5.199c1.758,1.779,3.541,3.558,5.637,4.966c2.798,1.88,5.592,3.766,8.396,5.638
			c0.812,0.543,1.65,1.047,2.501,1.585c-3.364,8.351-6.672,16.565-9.974,24.762c-0.411,0.037-0.721,0.065-1.017,0.093
			c-0.469,0.829-0.915,1.614-1.385,2.446c4.007,1.598,7.931,3.162,11.925,4.754c0.336-1.289,0.65-2.49,0.962-3.686
			c-0.602-0.333-1.078-0.597-1.542-0.853c0.19-0.743,0.361-1.412,0.526-2.058c-0.678-0.319-1.229-0.579-1.789-0.844
			c1.438-3.329,2.814-6.518,4.2-9.726c-0.728-0.38-1.354-0.706-1.996-1.04c0.202-0.653,0.382-1.239,0.567-1.839
			c-0.904-0.461-1.705-0.869-2.544-1.297c1.445-3.465,2.841-6.813,4.261-10.217c0.428,0.171,0.719,0.279,1.003,0.402
			c1.381,0.603,2.732,1.287,4.146,1.797c3.234,1.166,6.486,2.287,9.755,3.354c4.401,1.435,8.938,2.313,13.48,3.156
			c1.32,0.245,2.66,0.389,3.994,0.555c1.884,0.233,3.771,0.449,5.656,0.66c0.356,0.039,0.721,0.002,1.079,0.026
			c2.099,0.143,4.195,0.407,6.294,0.416c3.509,0.015,7.018-0.117,10.525-0.217c1.71-0.048,3.419-0.143,5.127-0.252
			c1.026-0.066,2.059-0.145,3.072-0.314c1.946-0.326,3.872-0.771,5.821-1.077c3.006-0.473,5.995-1.021,8.929-1.833
			c3.653-1.009,7.299-2.046,10.948-3.065c0.285-0.08,0.581-0.116,1.026-0.201c0,2.721,0,5.297,0,7.966c1.516,0,2.902,0,4.194,0
			c0.145,0.158,0.244,0.216,0.245,0.275c0.062,2.667,0.113,5.334,0.169,8.069c2.563-1.161,5.082-2.304,7.561-3.427
			c0-2.55,0-5.014,0-7.563c-2.194-0.086-4.334-0.178-6.474-0.247c-0.827-0.027-1.655-0.005-2.588-0.005c0-0.881,0-1.632,0-2.383
			c0-0.783,0-1.567,0-2.433c8.396-0.354,16.513-1.577,24.586-3.682c1.079,2.614,2.28,5.06,3.902,7.38
			c2.202-1.041,4.375-2.068,6.66-3.149c-0.528-0.477-0.963-0.866-1.395-1.259c-0.884-0.805-1.782-1.596-2.646-2.421
			c-0.948-0.905-1.948-1.764-2.403-3.075c-0.319-0.921-0.756-1.8-1.163-2.752c0.729-0.165,1.334-0.302,1.93-0.438
			c-0.088-1.275-0.17-2.482-0.262-3.825C223.479,140.279,222.438,140.373,221.263,140.479z M146.172,148.697
			c5.03-0.117,9.931-0.229,14.83-0.35c0.063-0.001,0.124-0.086,0.243-0.175c0-1.793,0-3.628,0-5.463c0-1.799,0-3.598,0-5.396
			c0-1.839-0.003-3.678,0.001-5.517c0.004-1.82-0.018-3.641,0.016-5.534c2.706,0,5.251,0,7.846,0c0-17.925,0-35.771,0-53.739
			c-1.83,0-3.605,0-5.499,0c0-1.334,0-2.55,0-3.751c-2.762-0.217-16.568-0.126-17.437,0.105
			C146.172,95.412,146.172,121.946,146.172,148.697z M169.687,72.047c0,25.057,0,49.949,0,74.993
			c5.011-0.987,9.938-1.729,14.652-3.561c0-11.452,0-22.792,0-34.253c5.212,0,10.345,0,15.466,0
			c0.191-2.196,0.129-6.506-0.116-7.438c-2.604,0-5.229,0-7.974,0c0-4.492,0-8.906,0-13.439c-3.814,0-7.508,0-11.27,0
			c0-1.754,0-3.388,0-5.022c0-1.6,0-3.199,0-4.798c0-1.64,0.003-3.279-0.001-4.918c-0.004-1.621,0.018-3.244-0.015-4.855
			c-5.499,0-10.843,0-16.234,0c0,1.107,0,2.161,0,3.293C166.006,72.047,167.752,72.047,169.687,72.047z M203.052,107.139
			c6.674,0,13.245,0,19.869,0c0.026,2.851-0.014,5.586,0.023,8.3c3.508,0,6.852,0,10.313,0c0-4.629,0-9.203,0-13.786
			c0.453-0.061,0.792-0.106,1.241-0.167c0-0.636,0-1.21,0-1.906c0.849,0,1.575,0,2.313,0c-0.075-0.433-0.158-0.74-0.177-1.05
			c-0.091-1.545-0.165-3.092-0.245-4.638c-0.081-1.586-0.158-3.172-0.242-4.758c-0.075-1.426-0.171-2.852-0.233-4.279
			c-0.098-2.265-0.172-4.531-0.262-6.797c-0.013-0.304-0.056-0.606-0.09-0.958c-1.075,0-2.071,0.007-3.066-0.002
			c-1.021-0.009-2.045,0.04-3.131-0.038c0-2.851,0-5.556,0-8.293c-7.849,0-15.618,0-23.509,0c0,1.121,0,2.178,0,3.234
			c-0.618,0.051-1.116,0.092-1.681,0.138c0,0.644,0,1.191,0,1.79c-0.409,0.038-0.749,0.07-1.123,0.105
			C203.052,85.055,203.052,95.995,203.052,107.139z M32.894,134.79c-3.188-1.306-6.204-2.539-9.248-3.785
			c-2.44,5.982-4.82,11.818-7.216,17.692c9.597,3.774,19.061,7.498,28.664,11.275c4.06-10.262,8.089-20.447,12.161-30.738
			c-2.234-3.012-4.443-5.991-6.684-9.013C44.608,125.135,38.765,129.95,32.894,134.79z M73.968,171.522
			c3.06-7.056,6.087-14.037,9.143-21.084c-1.304-0.749-2.527-1.452-3.779-2.173c1.185-3.449,2.69-6.661,3.738-9.876
			c-2.152-2.372-4.157-4.582-6.252-6.893c-3.59,0.774-7.202,1.633-10.645,2.559c-3.254,8.525-6.428,16.843-9.627,25.224
			c-1.507-0.534-2.866-1.016-4.286-1.52c-0.145,0.435-0.26,0.78-0.372,1.118c2.488,1.19,5.092,1.9,7.35,3.207
			c0.035,1.239-0.815,2.129-0.687,3.221C63.699,167.382,68.783,169.432,73.968,171.522z M200.332,130.214
			c0.071,0.03,0.143,0.061,0.214,0.092c0.373-0.448,0.706-0.938,1.128-1.334c0.626-0.587,0.892-1.248,0.865-2.117
			c-0.146-4.861,0.252-9.731-0.251-14.587c0-12.637-0.001-25.273,0.001-37.91c0-0.345,0.04-0.69,0.061-1.027
			c0.507-0.065,0.925-0.119,1.344-0.173c0.027-0.547,0.05-1.014,0.074-1.517c0.571-0.047,1.069-0.088,1.553-0.129
			c0-1.055,0-2.028,0-2.999c-8.149,0-16.212,0-24.326,0c0,6.467,0,12.878,0,19.416c3.759,0,7.452,0,11.214,0
			c0,1.599,0,3.073,0,4.548c0,1.479-0.008,2.959,0.002,4.438c0.009,1.46-0.044,2.924,0.039,4.459c2.764,0,5.389,0,8.083,0
			C200.332,111.044,200.332,120.628,200.332,130.214z M119.208,184.617c0-9.331,0-18.515,0-27.763
			c-4.171-1.409-8.333-2.816-12.514-4.229c-3.065,7.063-6.082,14.016-9.118,21.012c0.619,0.244,1.156,0.456,1.811,0.715
			c-0.193,0.759-0.373,1.465-0.563,2.206c0.49,0.229,0.946,0.442,1.529,0.714c-0.368,1.445-0.731,2.869-1.095,4.294
			c1.847,0.723,3.588,1.357,5.29,2.085c1.786,0.763,3.613,1.12,5.558,0.979c1.074-0.078,2.158-0.014,3.237-0.014
			C115.257,184.617,117.171,184.617,119.208,184.617z M123.604,112.185c0,11.207,0,22.306,0,33.503
			c4.225,1.072,8.463,1.97,12.95,2.254c0-5.939,0-11.713,0-17.605c2.126,0,4.141,0,6.141,0c0.209-2.714,0.124-11.534-0.13-12.472
			c-2.442,0-4.906,0-7.491,0c0-1.93,0-3.784,0-5.68C131.21,112.185,127.467,112.185,123.604,112.185z M108.055,109.547
			c-0.226,2.387-0.135,30.346,0.093,31.212c4.809,1.961,9.747,3.526,14.938,4.796c0-5.745-0.003-11.37,0.001-16.995
			c0.004-5.617-0.019-11.233,0.016-16.971c0.888,0,1.623,0,2.319,0c0-0.75,0-1.375,0-2.042
			C119.614,109.547,113.872,109.547,108.055,109.547z M88.844,173.484c3.224-8.039,6.419-16.008,9.627-24.006
			c-5.235-3.309-10.399-6.48-14.89-10.641c-1.191,3.06-2.372,6.092-3.566,9.162c1.338,0.777,2.554,1.483,3.816,2.217
			c-3.136,7.241-6.22,14.363-9.324,21.53c3.989,1.563,7.831,3.069,11.72,4.594c0.578-0.963,1.084-1.807,1.612-2.687
			C88.131,173.604,88.438,173.553,88.844,173.484z M199.856,109.823c-5.086,0-10.059,0-15.024,0
			c-0.228,3.182-0.124,32.574,0.123,33.508c2.469-0.822,4.935-1.644,7.352-2.449c2.551-3.355,5.066-6.667,7.55-9.936
			C199.856,123.893,199.856,116.899,199.856,109.823z M154.068,176.985c-2.179,0-4.195,0-6.205,0c0,0.909,0,1.694,0,2.599
			c2.467,0,4.884,0,7.278,0c0.088,0.377,0.148,0.636,0.233,1.005c0.921,0,1.816,0,2.786,0c0,1.469,0,2.815,0,4.268
			c1.187,0,2.299,0.041,3.405-0.016c0.619-0.032,1.274-0.124,1.839-0.363c1.931-0.821,3.825-1.729,5.741-2.587
			c1.95-0.872,3.915-1.713,5.863-2.589c1.182-0.531,2.345-1.104,3.435-1.619c0-0.81,0-1.469,0-2.139
			c-0.656-0.037-1.233-0.069-1.823-0.103c0-3.005-0.027-5.883,0.007-8.761c0.035-2.891,0.131-5.781,0.204-8.819
			c-2.589,0.48-5.009,0.93-7.482,1.389c0,3.241,0,6.346,0,9.57c-2.415,0-4.75,0-7.204,0c0,1.497,0,2.874,0,4.322
			c-2.748,0-5.373,0-8.077,0C154.068,174.406,154.068,175.594,154.068,176.985z M31.572,112.021
			c-2.591,6.202-5.141,12.302-7.71,18.453c3.063,1.247,5.979,2.436,8.952,3.646c5.836-4.814,11.613-9.581,17.431-14.381
			c-0.843-2.892-1.654-5.675-2.485-8.525c-0.38,0-0.739-0.056-1.074,0.009c-3.166,0.618-6.339,1.207-9.483,1.922
			c-0.952,0.217-1.775,0.152-2.653-0.164C33.59,112.635,32.609,112.352,31.572,112.021z M107.425,109.458
			c-3.454-1.305-6.872-2.595-10.284-3.883c-2.964,7.002-8.277,20.984-8.36,22.042c2.403,2.173,4.837,4.375,7.305,6.607
			c1.213-2.811,2.379-5.512,3.576-8.284c2.661,0.957,5.172,1.86,7.762,2.792C107.425,122.256,107.425,115.881,107.425,109.458z
			 M131.089,159.354c0,8.146,0,16.073,0,23.994c2.64,0.206,15.313,0.12,16.183-0.102c0-2.065,0-4.129,0-6.263
			c-0.465-0.032-0.882-0.061-1.414-0.097c0-1.287,0-2.503,0-3.834c-1.334,0-2.549,0-3.813,0c0-1.156,0-2.192,0-3.228
			c0-1.038,0-2.077,0-3.116c0-1.079,0.02-2.158-0.005-3.236c-0.023-1.019,0.113-2.049-0.08-2.996
			c-1.402-0.117-2.706-0.207-4.005-0.343c-1.175-0.122-2.344-0.309-3.518-0.443C133.347,159.564,132.253,159.469,131.089,159.354z
			 M130.489,184.572c0-8.485,0-16.866,0-25.393c-1.77-0.336-3.542-0.652-5.305-1.012c-1.786-0.364-3.546-0.855-5.389-1.177
			c0,9.278,0,18.407,0,27.581C123.364,184.572,126.866,184.572,130.489,184.572z M230.744,153.413c0.206,0,0.387,0.051,0.519-0.007
			c1.813-0.794,3.629-1.583,5.419-2.426c0.279-0.132,0.505-0.494,0.639-0.801c0.41-0.94,0.78-1.899,1.136-2.862
			c0.286-0.774,0.726-1.559,0.753-2.351c0.094-2.676,0.035-5.357,0.033-8.036c0-0.12-0.011-0.24-0.023-0.359
			c-0.146-1.373-0.341-2.744-0.429-4.121c-0.13-2.024-0.16-4.054-0.279-6.079c-0.058-0.975-0.22-1.944-0.34-2.957
			c-0.235,0-0.438-0.034-0.626,0.005c-1.925,0.394-3.907,0.56-5.688,1.515c-1.085,0.582-2.205,1.096-3.3,1.66
			c-1.445,0.744-2.654,1.812-3.495,3.17c-1.694,2.738-3.121,5.604-3.12,8.951c0,0.302-0.103,0.604-0.168,0.967
			c1.109,0.179,2.15,0.038,3.183-0.25c2.037-3.393,4.649-3.851,6.921-3.383c2.271,0.467,4.363,2.957,4.514,5.22
			c0.206,3.1-1.895,5.215-3.677,5.95c-2.617,1.079-5.429,0.269-7.345-2.39c-0.572,0-1.117,0-1.777,0
			c0.494,1.107,0.907,2.13,1.406,3.109c0.208,0.41,0.574,0.751,0.909,1.082c0.336,0.334,0.735,0.604,1.086,0.925
			C228.256,151.104,229.509,152.27,230.744,153.413z M186.74,173.714c0-4.204,0-8.379,0-12.673c1.717,0,3.332,0,4.935,0
			c0-2.428,0-4.733,0-7.181c-4.912,1.016-9.527,2.788-14.282,3.874c-0.086,5.84-0.169,11.521-0.254,17.282
			c1.882,0,3.68-0.098,5.462,0.029C184.142,175.156,185.379,174.593,186.74,173.714z M88.188,126.937
			c2.855-7.326,5.625-14.438,8.354-21.605c-4.451-1.714-8.751-3.37-13.157-5.067c-0.976,2.185-1.917,4.29-2.883,6.452
			c2.382,1.077,4.631,2.093,6.927,3.13c-1.52,3.762-3.148,7.304-4.539,10.918C84.664,122.832,86.343,124.788,88.188,126.937z
			 M145.646,148.568c0-0.533,0.005-0.931-0.001-1.329c-0.049-3.584-0.112-7.169-0.183-10.751
			c-0.169-8.636-0.056-17.277-0.058-25.917c0-0.422-0.018-0.844-0.027-1.255c-6.53,0-12.914,0-19.339,0c0,0.711,0,1.364,0,2.143
			c3.203,0,6.337,0,9.529,0c0,1.082-0.008,2.037,0.003,2.993c0.01,0.98-0.046,1.966,0.044,3.016c2.611,0,5.077,0,7.665,0
			c0,10.417,0,20.75,0,31.1C144.11,148.568,144.815,148.568,145.646,148.568z M169.144,126.854c-2.518,0-4.929,0-7.343,0
			c0,7.125,0,14.177,0,21.316c2.553-0.079,4.981-0.406,7.343-1.08C169.144,140.301,169.144,133.631,169.144,126.854z
			 M60.151,131.732c-3.209,8.199-6.383,16.305-9.611,24.549c1.863,0.9,3.762,1.564,5.686,2.236
			c2.914-7.649,5.774-15.158,8.637-22.674c-0.505-0.425-0.917-0.772-1.338-1.126c0.205-0.534,0.385-1.004,0.592-1.545
			C62.765,132.682,61.483,132.217,60.151,131.732z M47.62,110.409c-1.106-3.282-1.763-6.446-2.882-9.41
			c-2.451-0.979-4.788-1.913-7.187-2.872c-1.941,4.501-3.843,8.912-5.753,13.34c1.479,0.477,2.823,0.912,4.157,1.342
			C39.792,111.983,43.66,111.333,47.62,110.409z M146.413,176.457c1.263,0,2.416,0.003,3.57-0.001
			c1.182-0.005,2.362-0.018,3.526-0.027c0-5.332,0-10.515,0-15.741c-2.389,0-4.721,0-7.097,0
			C146.413,165.938,146.413,171.12,146.413,176.457z M49.878,156.479c1.659-4.268,3.274-8.441,4.902-12.61
			c1.625-4.162,3.26-8.319,4.9-12.501c-0.684-0.431-0.94-1.427-2.044-1.171c-3.975,9.893-7.958,19.803-11.92,29.665
			c0.86,0.741,8.247,3.718,12.112,4.929c0.042-0.86,0.894-1.496,0.604-2.54c-2.411-1.105-4.977-1.951-7.329-3.117
			c0.211-0.673,0.37-1.181,0.528-1.684C50.965,157.081,50.42,156.779,49.878,156.479z M209.193,123.213
			c0.206-4.261,0.121-14.622-0.117-15.579c-1.984,0-3.969,0-5.944,0c-0.254,1.769-0.174,19.031,0.096,19.858
			C205.253,126.04,207.268,124.595,209.193,123.213z M142.688,148.491c0-5.875,0-11.719,0-17.631c-0.987,0-1.9-0.001-2.813,0.001
			c-0.938,0.001-1.879,0.004-2.783,0.006c0,5.849,0,11.534,0,17.228C139.014,148.231,140.853,148.361,142.688,148.491z
			 M77.43,97.873c-1.446,3.609-2.859,7.109-4.135,10.629c1.04,1.314,2.002,2.525,2.959,3.74c0.956,1.214,1.767,2.545,2.883,3.829
			c1.129-2.725,2.182-5.265,3.252-7.847c-0.918-0.446-1.723-0.837-2.594-1.26c1.042-2.348,2.043-4.608,3.076-6.937
			C80.99,99.283,79.238,98.589,77.43,97.873z M196.287,169.678c0-1.5,0-2.819-0.001-4.139c0-1.303-0.003-2.605-0.004-3.904
			c-3.109,0-6.054,0-9.055,0c0,4.059,0,8.063,0,12.121C190.283,172.38,193.269,171.037,196.287,169.678z M215.318,107.623
			c0,4.201,0,8.291,0,12.531c2.422-0.909,4.734-1.777,7.058-2.649c0-3.344,0-6.592,0-9.882
			C220.006,107.623,217.704,107.623,215.318,107.623z M63.864,99.733c1.113-2.017,1.658-4.199,2.952-6.075
			c-4.143-1.634-8.271-3.262-12.464-4.916c-0.669,1.481-1.283,2.839-1.92,4.25C56.394,95.059,60.269,97.098,63.864,99.733z
			 M214.695,120.187c0-4.113,0-8.318,0-12.528c-1.681,0-3.291,0-4.894,0c0,5.104,0,10.13,0,15.11
			C211.436,121.907,213.03,121.066,214.695,120.187z M100.198,136.955c2.452,1.217,4.785,2.374,7.226,3.585
			c0-3.801,0-7.453,0-11.174c-1.375-0.492-2.725-0.975-4.104-1.469C102.268,131.003,101.151,133.931,100.198,136.955z
			 M223.154,157.414c-1.216-2.338-2.381-4.578-3.601-6.924c-1.592,0.211-3.218,0.551-4.84,1.116
			c0.098,1.743,0.213,3.367,0.271,4.993c0.044,1.239,0.01,2.48,0.025,3.72c0.003,0.249,0.068,0.498,0.114,0.806
			C217.881,159.852,220.529,158.627,223.154,157.414z M230.545,147.178c3.072-0.312,5.311-2.192,5.296-5.426
			c-0.016-3.254-2.319-5.313-5.351-5.315c-3.095-0.001-5.415,2.166-5.357,5.429C225.19,145.138,227.54,146.953,230.545,147.178z
			 M205.005,153.194c0,4.214,0,8.285,0,12.484c1.564-0.753,3.018-1.451,4.426-2.129c0-3.756,0-7.374,0-10.999
			C207.938,152.768,206.499,152.978,205.005,153.194z M101.632,150.415c-1.306,3.163-2.565,6.213-3.839,9.299
			c0.892,0.46,1.694,0.874,2.526,1.303c-0.192,0.64-0.37,1.231-0.563,1.872c0.549,0.249,1.034,0.469,1.545,0.701
			c1.647-3.81,3.237-7.488,4.857-11.236C104.625,151.696,103.216,151.094,101.632,150.415z M130.964,184.538
			c8.944,0,17.775,0,26.596,0c0-1.204,0-2.336,0-3.548c-0.951,0-1.817,0-2.7,0c-0.07-0.334-0.125-0.593-0.181-0.853
			c-2.221,0-4.392,0-6.686,0c0,1.371,0,2.666,0,4.004c-5.595,0-11.064-0.001-16.534,0.001c-0.078,0-0.157,0.012-0.233,0.031
			c-0.035,0.008-0.067,0.042-0.094,0.071C131.108,184.271,131.095,184.307,130.964,184.538z M161.651,172.578
			c0-4.209,0-8.294,0-12.322c-0.659,0.038-1.245,0.088-1.832,0.104c-0.622,0.018-1.245,0.004-1.856,0.004c0,4.171,0,8.175,0,12.214
			C159.218,172.578,160.399,172.578,161.651,172.578z M210.043,152.477c0,3.655,0,7.189,0,10.817
			c1.539-0.665,2.979-1.288,4.479-1.936c0-0.446,0.012-0.841-0.002-1.233c-0.071-2.027-0.157-4.055-0.222-6.082
			c-0.024-0.748-0.004-1.497-0.004-2.421C212.756,151.931,211.388,152.206,210.043,152.477z M82.457,120.281
			c1.429-3.41,2.83-6.75,4.265-10.176c-1.324-0.58-2.538-1.112-3.82-1.674c-1.165,2.816-2.278,5.506-3.398,8.215
			C80.519,117.895,81.461,119.056,82.457,120.281z M142.577,172.521c1.061,0,2.139,0,3.245,0c0-3.959,0-7.882,0-11.848
			c-1.104-0.06-2.149-0.116-3.245-0.175C142.577,164.473,142.577,168.448,142.577,172.521z M157.334,172.577
			c0-4.126,0-8.131,0-12.078c-1.119,0.063-2.17,0.12-3.214,0.179c0,4.014,0,7.938,0,11.899
			C155.214,172.577,156.235,172.577,157.334,172.577z M64.426,99.951c1.373,1.179,2.716,2.332,4.096,3.517
			c0.95-2.349,1.879-4.647,2.842-7.03c-1.541-0.659-2.983-1.275-4.524-1.934C66.022,96.348,65.243,98.107,64.426,99.951z
			 M168.851,168.247c0-2.991,0-5.886,0-8.935c-1.237,0.217-2.376,0.416-3.46,0.605c0,2.876,0,5.578,0,8.329
			C166.555,168.247,167.659,168.247,168.851,168.247z M99.937,126.664c-1.148,2.691-2.244,5.256-3.339,7.823
			c0.913,0.984,1.963,1.575,3.065,2.175c1.07-3.054,2.162-5.986,3.124-9.004C101.758,127.299,100.884,126.995,99.937,126.664z
			 M162.287,160.193c0,2.751,0,5.396,0,8.018c0.891,0,1.701,0,2.477,0c0-2.809,0-5.53,0-8.202
			C163.906,160.073,163.128,160.131,162.287,160.193z M204.4,153.248c-1.486,0.16-2.846,0.307-4.19,0.452c0,1.396,0,2.688,0,3.974
			c1.442,0.088,2.804,0.171,4.19,0.255C204.4,156.317,204.4,154.813,204.4,153.248z M195.89,153.969c0,1.294,0,2.502,0,3.685
			c1.289,0,2.497,0,3.671,0c0-1.375,0-2.664,0-3.941C198.304,153.8,197.132,153.882,195.89,153.969z M182.744,175.699
			c-0.026-0.05-0.053-0.1-0.079-0.148c-1.181,0-2.36,0-3.599,0c0,0.622,0,1.188,0,1.818
			C180.336,176.793,181.54,176.246,182.744,175.699z M68.065,94.301c0.001-0.033,0.002-0.065,0.003-0.098
			c-0.114-0.006-0.229-0.012-0.344-0.017c-0.001,0.039-0.002,0.077-0.003,0.115C67.836,94.301,67.951,94.301,68.065,94.301z"/>
		<path fill-rule="evenodd" clip-rule="evenodd" fill="#FDFDFD" d="M221.263,140.479c1.176-0.105,2.217-0.199,3.271-0.294
			c0.092,1.343,0.174,2.55,0.262,3.825c-0.596,0.136-1.201,0.272-1.93,0.438c0.407,0.952,0.844,1.831,1.163,2.752
			c0.455,1.312,1.455,2.17,2.403,3.075c0.864,0.825,1.763,1.616,2.646,2.421c0.432,0.393,0.866,0.782,1.395,1.259
			c-2.285,1.081-4.458,2.108-6.66,3.149c-1.622-2.32-2.823-4.766-3.902-7.38c-8.073,2.104-16.189,3.327-24.586,3.682
			c0,0.865,0,1.649,0,2.433c0,0.751,0,1.502,0,2.383c0.933,0,1.761-0.022,2.588,0.005c2.14,0.069,4.279,0.161,6.474,0.247
			c0,2.549,0,5.013,0,7.563c-2.479,1.123-4.998,2.266-7.561,3.427c-0.056-2.735-0.107-5.402-0.169-8.069
			c-0.001-0.06-0.101-0.117-0.245-0.275c-1.292,0-2.679,0-4.194,0c0-2.669,0-5.245,0-7.966c-0.445,0.085-0.741,0.121-1.026,0.201
			c-3.649,1.02-7.295,2.057-10.948,3.065c-2.934,0.812-5.923,1.36-8.929,1.833c-1.949,0.307-3.875,0.751-5.821,1.077
			c-1.014,0.17-2.046,0.248-3.072,0.314c-1.708,0.109-3.417,0.204-5.127,0.252c-3.508,0.1-7.017,0.231-10.525,0.217
			c-2.099-0.009-4.195-0.273-6.294-0.416c-0.358-0.024-0.723,0.013-1.079-0.026c-1.886-0.211-3.772-0.427-5.656-0.66
			c-1.334-0.166-2.674-0.31-3.994-0.555c-4.542-0.843-9.079-1.722-13.48-3.156c-3.269-1.066-6.521-2.188-9.755-3.354
			c-1.414-0.51-2.765-1.194-4.146-1.797c-0.284-0.123-0.576-0.231-1.003-0.402c-1.419,3.403-2.816,6.752-4.261,10.217
			c0.839,0.428,1.641,0.836,2.544,1.297c-0.185,0.6-0.365,1.186-0.567,1.839c0.641,0.334,1.268,0.66,1.996,1.04
			c-1.385,3.208-2.762,6.396-4.2,9.726c0.561,0.265,1.111,0.524,1.789,0.844c-0.165,0.646-0.336,1.314-0.526,2.058
			c0.464,0.256,0.939,0.52,1.542,0.853c-0.312,1.195-0.625,2.396-0.962,3.686c-3.994-1.592-7.918-3.156-11.925-4.754
			c0.471-0.832,0.916-1.617,1.385-2.446c0.296-0.027,0.606-0.056,1.017-0.093c3.301-8.196,6.61-16.411,9.974-24.762
			c-0.851-0.538-1.689-1.042-2.501-1.585c-2.804-1.872-5.598-3.758-8.396-5.638c-2.096-1.408-3.878-3.187-5.637-4.966
			c-1.617-1.637-3.049-3.457-4.559-5.199c-0.314-0.362-0.612-0.737-0.896-1.079c-3.884,0.933-7.6,1.826-11.327,2.722
			c-0.265,0.572-0.512,1.105-0.796,1.719c-0.285-0.223-0.554-0.434-0.854-0.669c0.204-0.528,0.386-1.002,0.62-1.608
			c-0.7-0.296-1.374-0.587-2.053-0.865c-0.256-0.104-0.524-0.18-0.787-0.265c-1.186-0.384-2.175-1.028-3.126-1.867
			c-1.423-1.256-2.418-2.812-3.526-4.297c-1.399-1.875-2.802-3.748-4.189-5.632c-0.208-0.283-0.41-0.6-0.505-0.933
			c-1.709-5.917-3.4-11.84-5.103-17.759c-0.076-0.265-0.229-0.508-0.381-0.838c2.684-2.052,5.385-4.118,8.15-6.231
			c0.414,0.167,0.82,0.304,1.204,0.487c3.999,1.9,7.75,4.231,11.193,6.99c1.978,1.584,3.684,3.517,5.451,5.353
			c1.129,1.173,2.186,2.423,3.204,3.695c1.264,1.579,2.438,3.229,3.682,4.823c1.319,1.691,2.655,3.37,4.023,5.022
			c1.699,2.053,3.404,4.103,5.172,6.094c1.034,1.164,2.17,2.241,3.31,3.305c1.192,1.113,2.49,2.116,3.658,3.254
			c1.813,1.766,3.861,3.201,6.084,4.36c4.75,2.476,9.627,4.676,14.775,6.213c2.875,0.858,5.737,1.771,8.646,2.497
			c2.793,0.696,5.627,1.245,8.464,1.739c1.713,0.298,3.47,0.339,5.201,0.545c7.043,0.839,14.113,0.459,21.169,0.385
			c3.548-0.037,7.094-0.46,10.586-1.295c3.376-0.807,6.829-1.282,10.219-2.036c1.846-0.41,3.637-1.074,5.438-1.666
			c2.291-0.753,4.56-1.577,6.857-2.31c0.725-0.231,1.211-0.606,1.667-1.224c1.864-2.52,3.792-4.994,5.722-7.466
			c0.999-1.281,2.014-2.555,3.097-3.765c0.578-0.646,1.286-1.188,1.988-1.705c1.627-1.201,3.256-2.404,4.939-3.522
			c2.147-1.426,4.353-2.73,6.843-3.536c2.365-0.765,4.666-1.728,7.028-2.616c0-0.658,0-1.206,0-1.881c3.613,0,7.147,0,10.766,0
			c0-4.671,0-9.215,0-13.818c0.411-0.073,0.748-0.133,1.212-0.215c0-0.551,0-1.126,0-1.762c0.75,0,1.376,0,2.08,0
			c0.034,0.178,0.103,0.398,0.115,0.622c0.172,3.017,0.328,6.035,0.506,9.052c0.146,2.499,0.306,4.996,0.477,7.493
			c0.115,1.699,0.26,3.396,0.4,5.218c-0.736,0.181-1.512,0.482-2.307,0.548c-2.279,0.188-4.231,1.218-6.246,2.163
			c-1.912,0.897-3.586,2.052-4.948,3.659c-0.229,0.271-0.469,0.543-0.643,0.85c-0.963,1.695-1.716,3.483-2.371,5.319
			C221.361,136.801,221.227,138.518,221.263,140.479z M189.888,145.721c-2.972,0.929-5.725,1.935-8.553,2.638
			c-3.86,0.959-7.681,2.138-11.681,2.479c-1.569,0.134-3.125,0.435-4.685,0.679c-1.041,0.163-2.076,0.36-3.149,0.549
			c-0.224,1.365,0.017,2.558,0.271,3.863c0.297,0.042,0.598,0.134,0.893,0.117c0.909-0.051,1.82-0.11,2.724-0.227
			c1.919-0.246,3.854-0.43,5.745-0.821c2.932-0.607,5.836-1.347,8.743-2.067c3.406-0.845,6.841-1.598,10.127-2.865
			c0.419-0.162,0.81-0.395,1.325-0.649C190.903,148.143,190.868,146.717,189.888,145.721z M63.751,123.765
			c0.236,2.264,1.358,3.876,3.372,4.75c2.088,0.905,4.035,0.493,5.77-1.012c0.477,0.164,0.958,0.33,1.408,0.484
			c0.805-0.63,1.807-2.549,2.187-4.136c-0.36-0.768-1.213-0.666-1.796-1.028c-1.627-4.668-4.898-5.92-9.139-3.43
			c-0.539-0.171-1.136-0.36-1.813-0.575c-0.996,1.121-1.075,2.601-1.626,3.772C62.421,123.429,63.186,123.38,63.751,123.765z
			 M157.799,152.545c-0.417-0.041-0.649-0.083-0.883-0.086c-5.381-0.062-10.766,0.168-16.142-0.233
			c-1.226-0.092-2.455-0.146-3.677-0.271c-0.979-0.102-1.948-0.303-2.926-0.427c-0.886-0.113-1.778-0.183-2.765-0.281
			c-0.221,1.452-0.57,2.74-0.312,4.062c2.598,1.221,24.343,2.192,26.788,1.163C157.863,155.23,157.968,153.938,157.799,152.545z
			 M123.171,149.27c-2.425-0.668-4.714-1.237-6.963-1.937c-2.262-0.703-4.501-1.493-6.719-2.326
			c-2.215-0.832-4.392-1.766-6.557-2.643c-0.782,0.707-1.111,1.33-1.905,3.557c0.474,0.658,0.455,0.705,1.125,0.979
			c2.817,1.151,5.608,2.385,8.481,3.377c3.542,1.223,7.155,2.239,10.741,3.332c0.212,0.064,0.461,0.008,0.755,0.008
			C122.804,152.293,122.833,150.868,123.171,149.27z M97.355,144.663c1.109-1.111,1.586-2.449,2.327-3.729
			c-1.405-1.261-3.065-1.972-4.47-3.044c-1.386-1.057-2.79-2.095-4.117-3.222c-1.365-1.158-2.621-2.445-3.975-3.618
			c-1.347-1.167-2.232-2.787-3.665-3.827c-1.563,0.96-2.632,1.962-3.117,2.95C84.923,136.149,90.84,140.619,97.355,144.663z
			 M199.033,147.271c3.905-1.36,7.637-2.652,11.357-3.972c0.309-0.109,0.554-0.399,0.872-0.64c-0.534-1.42-0.553-2.923-1.388-4.097
			c-0.212,0-0.299-0.021-0.369,0.003c-3.394,1.19-6.787,2.378-10.172,3.591c-0.346,0.124-0.635,0.405-0.902,0.582
			C198.504,144.317,198.316,145.791,199.033,147.271z M129.333,152.378c0.015-1.295-0.921-2.288-2.187-2.325
			c-1.358-0.039-2.309,0.918-2.404,2.245c-0.084,1.176,1.178,2.424,2.327,2.346C128.349,154.556,129.319,153.66,129.333,152.378z"/>
		<path fill-rule="evenodd" clip-rule="evenodd" fill="#F1EDE1" d="M146.172,148.697c0-26.751,0-53.285,0-79.819
			c0.868-0.231,14.675-0.323,17.437-0.105c0,1.202,0,2.417,0,3.751c1.894,0,3.669,0,5.499,0c0,17.968,0,35.814,0,53.739
			c-2.595,0-5.14,0-7.846,0c-0.033,1.893-0.012,3.713-0.016,5.534c-0.004,1.839-0.001,3.678-0.001,5.517c0,1.799,0,3.598,0,5.396
			c0,1.835,0,3.67,0,5.463c-0.119,0.089-0.181,0.174-0.243,0.175C156.103,148.468,151.202,148.58,146.172,148.697z"/>
		<path fill-rule="evenodd" clip-rule="evenodd" fill="#F1EDE1" d="M169.687,72.047c-1.935,0-3.681,0-5.491,0
			c0-1.132,0-2.186,0-3.293c5.392,0,10.735,0,16.234,0c0.032,1.612,0.011,3.234,0.015,4.855c0.004,1.64,0.001,3.279,0.001,4.918
			c0,1.599,0,3.199,0,4.798c0,1.634,0,3.268,0,5.022c3.762,0,7.455,0,11.27,0c0,4.533,0,8.947,0,13.439c2.745,0,5.37,0,7.974,0
			c0.245,0.933,0.308,5.242,0.116,7.438c-5.121,0-10.254,0-15.466,0c0,11.461,0,22.801,0,34.253
			c-4.715,1.832-9.642,2.573-14.652,3.561C169.687,121.996,169.687,97.104,169.687,72.047z"/>
		<path fill-rule="evenodd" clip-rule="evenodd" fill="#F1EDE1" d="M203.052,107.139c0-11.144,0-22.084,0-33.103
			c0.374-0.035,0.714-0.067,1.123-0.105c0-0.599,0-1.146,0-1.79c0.564-0.046,1.063-0.087,1.681-0.138c0-1.056,0-2.114,0-3.234
			c7.891,0,15.66,0,23.509,0c0,2.737,0,5.442,0,8.293c1.086,0.078,2.11,0.029,3.131,0.038c0.995,0.009,1.991,0.002,3.066,0.002
			c0.034,0.351,0.077,0.654,0.09,0.958c0.09,2.266,0.164,4.532,0.262,6.797c0.063,1.427,0.158,2.853,0.233,4.279
			c0.084,1.586,0.161,3.172,0.242,4.758c0.08,1.546,0.154,3.093,0.245,4.638c0.019,0.311,0.102,0.617,0.177,1.05
			c-0.737,0-1.464,0-2.313,0c0,0.696,0,1.271,0,1.906c-0.449,0.061-0.788,0.106-1.241,0.167c0,4.583,0,9.156,0,13.786
			c-3.461,0-6.805,0-10.313,0c-0.037-2.714,0.003-5.45-0.023-8.3C216.297,107.139,209.726,107.139,203.052,107.139z"/>
		<path fill-rule="evenodd" clip-rule="evenodd" fill="#F1EDE1" d="M32.894,134.79c5.872-4.84,11.715-9.655,17.677-14.568
			c2.241,3.021,4.45,6.001,6.684,9.013c-4.071,10.291-8.101,20.477-12.161,30.738c-9.603-3.777-19.067-7.501-28.664-11.275
			c2.396-5.874,4.776-11.71,7.216-17.692C26.69,132.251,29.706,133.484,32.894,134.79z"/>
		<path fill-rule="evenodd" clip-rule="evenodd" fill="#F1EDE1" d="M73.968,171.522c-5.185-2.091-10.27-4.141-15.418-6.217
			c-0.128-1.092,0.722-1.981,0.687-3.221c-2.258-1.307-4.862-2.017-7.35-3.207c0.112-0.338,0.228-0.684,0.372-1.118
			c1.42,0.504,2.779,0.985,4.286,1.52c3.199-8.381,6.374-16.698,9.627-25.224c3.442-0.926,7.055-1.784,10.645-2.559
			c2.095,2.311,4.1,4.521,6.252,6.893c-1.047,3.215-2.553,6.427-3.738,9.876c1.252,0.721,2.476,1.424,3.779,2.173
			C80.056,157.485,77.028,164.467,73.968,171.522z"/>
		<path fill-rule="evenodd" clip-rule="evenodd" fill="#C0BAA8" d="M200.332,130.214c0-9.585,0-19.17,0-28.838
			c-2.694,0-5.319,0-8.083,0c-0.083-1.536-0.03-2.999-0.039-4.459c-0.01-1.479-0.002-2.959-0.002-4.438c0-1.475,0-2.949,0-4.548
			c-3.762,0-7.455,0-11.214,0c0-6.538,0-12.949,0-19.416c8.114,0,16.177,0,24.326,0c0,0.971,0,1.944,0,2.999
			c-0.483,0.041-0.981,0.082-1.553,0.129c-0.024,0.503-0.047,0.97-0.074,1.517c-0.419,0.054-0.837,0.107-1.344,0.173
			c-0.021,0.336-0.061,0.682-0.061,1.027c-0.002,12.636-0.001,25.273-0.001,37.91c0.503,4.855,0.104,9.726,0.251,14.587
			c0.026,0.869-0.239,1.53-0.865,2.117c-0.422,0.396-0.755,0.886-1.128,1.334C200.475,130.274,200.403,130.244,200.332,130.214z"/>
		<path fill-rule="evenodd" clip-rule="evenodd" fill="#F1EDE1" d="M119.208,184.617c-2.036,0-3.95,0-5.865,0
			c-1.079,0-2.164-0.064-3.237,0.014c-1.945,0.141-3.771-0.217-5.558-0.979c-1.702-0.728-3.443-1.362-5.29-2.085
			c0.363-1.425,0.727-2.849,1.095-4.294c-0.583-0.271-1.039-0.484-1.529-0.714c0.189-0.741,0.369-1.447,0.563-2.206
			c-0.655-0.259-1.191-0.471-1.811-0.715c3.036-6.996,6.053-13.949,9.118-21.012c4.18,1.412,8.343,2.819,12.514,4.229
			C119.208,166.103,119.208,175.286,119.208,184.617z"/>
		<path fill-rule="evenodd" clip-rule="evenodd" fill="#F1EDE1" d="M123.604,112.185c3.863,0,7.606,0,11.469,0
			c0,1.896,0,3.75,0,5.68c2.585,0,5.049,0,7.491,0c0.254,0.938,0.339,9.757,0.13,12.472c-2,0-4.015,0-6.141,0
			c0,5.893,0,11.666,0,17.605c-4.486-0.284-8.725-1.182-12.95-2.254C123.604,134.491,123.604,123.392,123.604,112.185z"/>
		<path fill-rule="evenodd" clip-rule="evenodd" fill="#F1EDE1" d="M108.055,109.547c5.817,0,11.559,0,17.366,0
			c0,0.667,0,1.292,0,2.042c-0.696,0-1.431,0-2.319,0c-0.034,5.737-0.011,11.354-0.016,16.971
			c-0.004,5.625-0.001,11.25-0.001,16.995c-5.191-1.27-10.129-2.835-14.938-4.796C107.919,139.893,107.829,111.934,108.055,109.547z
			"/>
		<path fill-rule="evenodd" clip-rule="evenodd" fill="#F1EDE1" d="M88.844,173.484c-0.406,0.068-0.713,0.12-1.005,0.17
			c-0.528,0.88-1.034,1.724-1.612,2.687c-3.889-1.524-7.731-3.03-11.72-4.594c3.104-7.167,6.188-14.289,9.324-21.53
			c-1.262-0.733-2.479-1.439-3.816-2.217c1.195-3.07,2.375-6.103,3.566-9.162c4.491,4.16,9.655,7.332,14.89,10.641
			C95.263,157.477,92.067,165.445,88.844,173.484z"/>
		<path fill-rule="evenodd" clip-rule="evenodd" fill="#F1EDE1" d="M199.856,109.823c0,7.076,0,14.069,0,21.123
			c-2.483,3.269-4.999,6.58-7.55,9.936c-2.417,0.806-4.883,1.627-7.352,2.449c-0.247-0.934-0.351-30.326-0.123-33.508
			C189.798,109.823,194.771,109.823,199.856,109.823z"/>
		<path fill-rule="evenodd" clip-rule="evenodd" fill="#F1EDE1" d="M154.068,176.985c0-1.392,0-2.579,0-3.843
			c2.704,0,5.329,0,8.077,0c0-1.448,0-2.825,0-4.322c2.454,0,4.789,0,7.204,0c0-3.225,0-6.329,0-9.57
			c2.474-0.459,4.894-0.908,7.482-1.389c-0.073,3.038-0.169,5.929-0.204,8.819c-0.034,2.878-0.007,5.756-0.007,8.761
			c0.59,0.033,1.167,0.065,1.823,0.103c0,0.67,0,1.329,0,2.139c-1.09,0.516-2.253,1.088-3.435,1.619
			c-1.948,0.876-3.913,1.717-5.863,2.589c-1.916,0.857-3.811,1.766-5.741,2.587c-0.564,0.239-1.22,0.331-1.839,0.363
			c-1.106,0.057-2.219,0.016-3.405,0.016c0-1.452,0-2.799,0-4.268c-0.97,0-1.865,0-2.786,0c-0.085-0.369-0.146-0.628-0.233-1.005
			c-2.395,0-4.812,0-7.278,0c0-0.904,0-1.689,0-2.599C149.873,176.985,151.89,176.985,154.068,176.985z"/>
		<path fill-rule="evenodd" clip-rule="evenodd" fill="#F1EDE1" d="M31.572,112.021c1.037,0.332,2.018,0.615,2.977,0.96
			c0.878,0.316,1.702,0.38,2.653,0.164c3.144-0.716,6.317-1.304,9.483-1.922c0.335-0.065,0.694-0.009,1.074-0.009
			c0.831,2.851,1.642,5.634,2.485,8.525c-5.818,4.8-11.595,9.567-17.431,14.381c-2.972-1.21-5.889-2.398-8.952-3.646
			C26.432,124.323,28.981,118.223,31.572,112.021z"/>
		<path fill-rule="evenodd" clip-rule="evenodd" fill="#F1EDE1" d="M107.425,109.458c0,6.423,0,12.798,0,19.273
			c-2.59-0.932-5.102-1.834-7.762-2.792c-1.197,2.772-2.363,5.473-3.576,8.284c-2.468-2.232-4.902-4.434-7.305-6.607
			c0.083-1.057,5.396-15.04,8.36-22.042C100.554,106.864,103.971,108.154,107.425,109.458z"/>
		<path fill-rule="evenodd" clip-rule="evenodd" fill="#F1EDE1" d="M131.089,159.354c1.164,0.115,2.258,0.211,3.349,0.337
			c1.174,0.135,2.343,0.321,3.518,0.443c1.299,0.136,2.603,0.226,4.005,0.343c0.193,0.947,0.057,1.978,0.08,2.996
			c0.024,1.078,0.005,2.157,0.005,3.236c0,1.039,0,2.078,0,3.116c0,1.035,0,2.071,0,3.228c1.264,0,2.479,0,3.813,0
			c0,1.331,0,2.547,0,3.834c0.532,0.036,0.949,0.064,1.414,0.097c0,2.134,0,4.197,0,6.263c-0.87,0.222-13.543,0.308-16.183,0.102
			C131.089,175.427,131.089,167.499,131.089,159.354z"/>
		<path fill-rule="evenodd" clip-rule="evenodd" fill="#F1EDE1" d="M130.489,184.572c-3.623,0-7.125,0-10.694,0
			c0-9.174,0-18.303,0-27.581c1.843,0.321,3.603,0.813,5.389,1.177c1.764,0.359,3.536,0.676,5.305,1.012
			C130.489,167.706,130.489,176.087,130.489,184.572z"/>
		<path fill-rule="evenodd" clip-rule="evenodd" fill="#F0ECE0" d="M230.744,153.413c-1.235-1.144-2.488-2.31-3.75-3.467
			c-0.351-0.321-0.75-0.591-1.086-0.925c-0.335-0.331-0.701-0.672-0.909-1.082c-0.499-0.979-0.912-2.002-1.406-3.109
			c0.66,0,1.205,0,1.777,0c1.916,2.658,4.728,3.469,7.345,2.39c1.782-0.735,3.883-2.851,3.677-5.95
			c-0.15-2.263-2.243-4.753-4.514-5.22c-2.271-0.468-4.884-0.01-6.921,3.383c-1.032,0.288-2.073,0.429-3.183,0.25
			c0.065-0.363,0.168-0.665,0.168-0.967c-0.001-3.348,1.426-6.213,3.12-8.951c0.841-1.358,2.05-2.426,3.495-3.17
			c1.095-0.564,2.215-1.079,3.3-1.66c1.78-0.955,3.763-1.121,5.688-1.515c0.188-0.039,0.391-0.005,0.626-0.005
			c0.12,1.013,0.282,1.982,0.34,2.957c0.119,2.025,0.149,4.054,0.279,6.079c0.088,1.377,0.283,2.748,0.429,4.121
			c0.013,0.119,0.023,0.239,0.023,0.359c0.002,2.679,0.061,5.36-0.033,8.036c-0.027,0.792-0.467,1.576-0.753,2.351
			c-0.355,0.963-0.726,1.922-1.136,2.862c-0.134,0.307-0.359,0.669-0.639,0.801c-1.79,0.843-3.605,1.632-5.419,2.426
			C231.131,153.464,230.95,153.413,230.744,153.413z"/>
		<path fill-rule="evenodd" clip-rule="evenodd" fill="#F1EDE1" d="M186.74,173.714c-1.361,0.879-2.599,1.442-4.14,1.332
			c-1.782-0.127-3.58-0.029-5.462-0.029c0.085-5.762,0.168-11.442,0.254-17.282c4.755-1.086,9.37-2.858,14.282-3.874
			c0,2.447,0,4.753,0,7.181c-1.603,0-3.218,0-4.935,0C186.74,165.335,186.74,169.51,186.74,173.714z"/>
		<path fill-rule="evenodd" clip-rule="evenodd" fill="#F0ECE0" d="M88.188,126.937c-1.844-2.148-3.524-4.105-5.298-6.171
			c1.39-3.614,3.019-7.157,4.539-10.918c-2.295-1.038-4.544-2.053-6.927-3.13c0.966-2.162,1.907-4.268,2.883-6.452
			c4.406,1.697,8.706,3.353,13.157,5.067C93.813,112.499,91.043,119.61,88.188,126.937z"/>
		<path fill-rule="evenodd" clip-rule="evenodd" fill="#C0BAA8" d="M145.646,148.568c-0.831,0-1.536,0-2.367,0
			c0-10.351,0-20.684,0-31.1c-2.588,0-5.054,0-7.665,0c-0.09-1.05-0.034-2.036-0.044-3.016c-0.011-0.956-0.003-1.912-0.003-2.993
			c-3.191,0-6.326,0-9.529,0c0-0.778,0-1.431,0-2.143c6.425,0,12.809,0,19.339,0c0.01,0.412,0.027,0.833,0.027,1.255
			c0.002,8.639-0.111,17.281,0.058,25.917c0.07,3.582,0.134,7.167,0.183,10.751C145.651,147.638,145.646,148.035,145.646,148.568z"
			/>
		<path fill-rule="evenodd" clip-rule="evenodd" fill="#F1EDE1" d="M169.144,126.854c0,6.777,0,13.447,0,20.236
			c-2.361,0.674-4.79,1.001-7.343,1.08c0-7.139,0-14.19,0-21.316C164.215,126.854,166.626,126.854,169.144,126.854z"/>
		<path fill-rule="evenodd" clip-rule="evenodd" fill="#F0ECE0" d="M60.151,131.732c1.333,0.484,2.614,0.949,3.966,1.44
			c-0.207,0.541-0.387,1.011-0.592,1.545c0.42,0.354,0.833,0.701,1.338,1.126c-2.862,7.516-5.723,15.024-8.637,22.674
			c-1.923-0.672-3.823-1.336-5.686-2.236C53.768,148.037,56.941,139.932,60.151,131.732z"/>
		<path fill-rule="evenodd" clip-rule="evenodd" fill="#F0ECE0" d="M47.62,110.409c-3.96,0.924-7.829,1.575-11.665,2.401
			c-1.333-0.431-2.678-0.865-4.157-1.342c1.91-4.428,3.812-8.839,5.753-13.34c2.398,0.958,4.735,1.893,7.187,2.872
			C45.857,103.963,46.514,107.127,47.62,110.409z"/>
		<path fill-rule="evenodd" clip-rule="evenodd" fill="#F1EDE1" d="M146.413,176.457c0-5.337,0-10.52,0-15.77
			c2.376,0,4.708,0,7.097,0c0,5.227,0,10.409,0,15.741c-1.164,0.01-2.345,0.022-3.526,0.027
			C148.829,176.46,147.676,176.457,146.413,176.457z"/>
		<path fill-rule="evenodd" clip-rule="evenodd" fill="#C0BAA8" d="M49.878,156.479c0.542,0.3,1.086,0.602,1.753,0.971
			c-0.158,0.503-0.317,1.011-0.528,1.684c2.353,1.166,4.918,2.012,7.329,3.117c0.289,1.044-0.562,1.68-0.604,2.54
			c-3.865-1.211-11.252-4.188-12.112-4.929c3.963-9.862,7.945-19.772,11.92-29.665c1.104-0.256,1.36,0.74,2.044,1.171
			c-1.64,4.182-3.275,8.339-4.9,12.501C53.153,148.038,51.537,152.212,49.878,156.479z"/>
		<path fill-rule="evenodd" clip-rule="evenodd" fill="#F1EDE1" d="M209.193,123.213c-1.926,1.382-3.94,2.827-5.966,4.279
			c-0.27-0.828-0.35-18.09-0.096-19.858c1.976,0,3.96,0,5.944,0C209.314,108.591,209.399,118.953,209.193,123.213z"/>
		<path fill-rule="evenodd" clip-rule="evenodd" fill="#F1EDE1" d="M142.688,148.491c-1.836-0.13-3.675-0.26-5.597-0.396
			c0-5.693,0-11.379,0-17.228c0.904-0.002,1.845-0.005,2.783-0.006c0.913-0.002,1.826-0.001,2.813-0.001
			C142.688,136.772,142.688,142.616,142.688,148.491z"/>
		<path fill-rule="evenodd" clip-rule="evenodd" fill="#F0ECE0" d="M77.43,97.873c1.808,0.716,3.56,1.41,5.441,2.155
			c-1.033,2.329-2.035,4.588-3.076,6.937c0.871,0.423,1.675,0.814,2.594,1.26c-1.07,2.582-2.123,5.122-3.252,7.847
			c-1.116-1.284-1.927-2.614-2.883-3.829c-0.957-1.215-1.919-2.426-2.959-3.74C74.571,104.982,75.984,101.482,77.43,97.873z"/>
		<path fill-rule="evenodd" clip-rule="evenodd" fill="#C0BAA8" d="M196.287,169.678c-3.019,1.359-6.004,2.702-9.06,4.078
			c0-4.059,0-8.063,0-12.121c3.001,0,5.945,0,9.055,0c0.001,1.299,0.004,2.602,0.004,3.904
			C196.287,166.858,196.287,168.178,196.287,169.678z"/>
		<path fill-rule="evenodd" clip-rule="evenodd" fill="#F1EDE1" d="M215.318,107.623c2.386,0,4.688,0,7.058,0
			c0,3.29,0,6.538,0,9.882c-2.323,0.872-4.636,1.74-7.058,2.649C215.318,115.914,215.318,111.824,215.318,107.623z"/>
		<path fill-rule="evenodd" clip-rule="evenodd" fill="#F0ECE0" d="M63.864,99.733c-3.595-2.635-7.47-4.674-11.433-6.741
			c0.637-1.411,1.251-2.769,1.92-4.25c4.193,1.654,8.322,3.282,12.464,4.916C65.522,95.534,64.978,97.716,63.864,99.733z"/>
		<path fill-rule="evenodd" clip-rule="evenodd" fill="#F1EDE1" d="M214.695,120.187c-1.665,0.879-3.26,1.72-4.894,2.582
			c0-4.98,0-10.006,0-15.11c1.603,0,3.213,0,4.894,0C214.695,111.869,214.695,116.074,214.695,120.187z"/>
		<path fill-rule="evenodd" clip-rule="evenodd" fill="#F0ECE0" d="M100.198,136.955c0.953-3.024,2.069-5.952,3.122-9.058
			c1.379,0.494,2.729,0.977,4.104,1.469c0,3.721,0,7.373,0,11.174C104.983,139.329,102.65,138.172,100.198,136.955z"/>
		<path fill-rule="evenodd" clip-rule="evenodd" fill="#F0ECE0" d="M223.154,157.414c-2.625,1.213-5.273,2.438-8.029,3.711
			c-0.046-0.308-0.111-0.557-0.114-0.806c-0.016-1.239,0.019-2.48-0.025-3.72c-0.059-1.626-0.174-3.25-0.271-4.993
			c1.622-0.565,3.248-0.905,4.84-1.116C220.773,152.836,221.938,155.076,223.154,157.414z"/>
		<path fill-rule="evenodd" clip-rule="evenodd" fill="#C0BAA8" d="M230.545,147.178c-3.005-0.225-5.354-2.04-5.412-5.313
			c-0.058-3.263,2.263-5.43,5.357-5.429c3.031,0.002,5.335,2.062,5.351,5.315C235.855,144.985,233.617,146.866,230.545,147.178z
			 M233.728,141.722c-0.046-1.812-1.466-3.179-3.24-3.184c-1.843-0.005-3.285,1.505-3.239,3.302
			c0.046,1.815,1.473,3.221,3.243,3.168C232.543,144.945,233.646,143.785,233.728,141.722z"/>
		<path fill-rule="evenodd" clip-rule="evenodd" fill="#F1EDE1" d="M205.005,153.194c1.494-0.217,2.933-0.427,4.426-0.644
			c0,3.625,0,7.243,0,10.999c-1.408,0.678-2.861,1.376-4.426,2.129C205.005,161.479,205.005,157.408,205.005,153.194z"/>
		<path fill-rule="evenodd" clip-rule="evenodd" fill="#F0ECE0" d="M101.632,150.415c1.584,0.679,2.992,1.281,4.527,1.938
			c-1.62,3.748-3.21,7.427-4.857,11.236c-0.512-0.232-0.997-0.452-1.545-0.701c0.192-0.641,0.37-1.232,0.563-1.872
			c-0.832-0.429-1.634-0.843-2.526-1.303C99.067,156.628,100.327,153.578,101.632,150.415z"/>
		<path fill-rule="evenodd" clip-rule="evenodd" fill="#F0ECE0" d="M71.264,95.558c0.522,0.166,1.053,0.309,1.564,0.502
			c1.32,0.5,2.632,1.022,4.059,1.578c-1.356,3.484-2.681,6.887-4.023,10.333c-1.276-1.322-2.525-2.617-3.881-4.021
			c0.868-2.557,2.065-5.037,2.967-7.539c-0.269-0.299-0.498-0.553-0.726-0.808L71.264,95.558z"/>
		<path fill-rule="evenodd" clip-rule="evenodd" fill="#C0BAA8" d="M130.964,184.538c0.131-0.231,0.145-0.267,0.168-0.293
			c0.026-0.029,0.059-0.063,0.094-0.071c0.076-0.02,0.155-0.031,0.233-0.031c5.47-0.002,10.939-0.001,16.534-0.001
			c0-1.338,0-2.633,0-4.004c2.294,0,4.465,0,6.686,0c0.056,0.26,0.11,0.519,0.181,0.853c0.883,0,1.749,0,2.7,0
			c0,1.212,0,2.344,0,3.548C148.739,184.538,139.908,184.538,130.964,184.538z"/>
		<path fill-rule="evenodd" clip-rule="evenodd" fill="#F1EDE1" d="M161.651,172.578c-1.252,0-2.434,0-3.688,0
			c0-4.039,0-8.043,0-12.214c0.611,0,1.234,0.014,1.856-0.004c0.587-0.017,1.173-0.066,1.832-0.104
			C161.651,164.284,161.651,168.369,161.651,172.578z"/>
		<path fill-rule="evenodd" clip-rule="evenodd" fill="#F0ECE0" d="M210.043,152.477c1.345-0.271,2.713-0.546,4.251-0.854
			c0,0.924-0.021,1.673,0.004,2.421c0.064,2.027,0.15,4.055,0.222,6.082c0.014,0.393,0.002,0.787,0.002,1.233
			c-1.499,0.647-2.939,1.271-4.479,1.936C210.043,159.666,210.043,156.132,210.043,152.477z"/>
		<path fill-rule="evenodd" clip-rule="evenodd" fill="#F0ECE0" d="M82.457,120.281c-0.996-1.226-1.938-2.386-2.954-3.635
			c1.121-2.709,2.233-5.399,3.398-8.215c1.283,0.563,2.497,1.095,3.82,1.674C85.287,113.531,83.886,116.872,82.457,120.281z"/>
		<path fill-rule="evenodd" clip-rule="evenodd" fill="#F1EDE1" d="M142.577,172.521c0-4.072,0-8.048,0-12.022
			c1.096,0.059,2.141,0.115,3.245,0.175c0,3.966,0,7.889,0,11.848C144.716,172.521,143.638,172.521,142.577,172.521z"/>
		<path fill-rule="evenodd" clip-rule="evenodd" fill="#F1EDE1" d="M157.334,172.577c-1.099,0-2.12,0-3.214,0
			c0-3.962,0-7.886,0-11.899c1.044-0.059,2.095-0.116,3.214-0.179C157.334,164.446,157.334,168.451,157.334,172.577z"/>
		<path fill-rule="evenodd" clip-rule="evenodd" fill="#F0ECE0" d="M64.426,99.951c0.817-1.844,1.596-3.603,2.414-5.448
			c1.541,0.659,2.983,1.275,4.524,1.934c-0.963,2.383-1.893,4.681-2.842,7.03C67.142,102.283,65.799,101.129,64.426,99.951z"/>
		<path fill-rule="evenodd" clip-rule="evenodd" fill="#F1EDE1" d="M168.851,168.247c-1.191,0-2.296,0-3.46,0
			c0-2.751,0-5.453,0-8.329c1.084-0.189,2.223-0.389,3.46-0.605C168.851,162.361,168.851,165.256,168.851,168.247z"/>
		<path fill-rule="evenodd" clip-rule="evenodd" fill="#F0ECE0" d="M99.937,126.664c0.947,0.331,1.821,0.635,2.849,0.994
			c-0.961,3.018-2.054,5.951-3.124,9.004c-1.102-0.6-2.152-1.19-3.065-2.175C97.693,131.92,98.788,129.355,99.937,126.664z"/>
		<path fill-rule="evenodd" clip-rule="evenodd" fill="#F1EDE1" d="M162.287,160.193c0.841-0.063,1.619-0.12,2.477-0.185
			c0,2.672,0,5.394,0,8.202c-0.775,0-1.586,0-2.477,0C162.287,165.589,162.287,162.944,162.287,160.193z"/>
		<path fill-rule="evenodd" clip-rule="evenodd" fill="#F0ECE0" d="M204.4,153.248c0,1.565,0,3.069,0,4.681
			c-1.387-0.084-2.748-0.167-4.19-0.255c0-1.285,0-2.578,0-3.974C201.555,153.555,202.914,153.408,204.4,153.248z"/>
		<path fill-rule="evenodd" clip-rule="evenodd" fill="#F0ECE0" d="M195.89,153.969c1.242-0.087,2.414-0.169,3.671-0.257
			c0,1.277,0,2.566,0,3.941c-1.174,0-2.382,0-3.671,0C195.89,156.471,195.89,155.263,195.89,153.969z"/>
		<path fill-rule="evenodd" clip-rule="evenodd" fill="#C0BAA8" d="M182.744,175.699c-1.204,0.547-2.408,1.094-3.678,1.67
			c0-0.631,0-1.196,0-1.818c1.238,0,2.418,0,3.599,0C182.691,175.6,182.718,175.649,182.744,175.699z"/>
		<path fill-rule="evenodd" clip-rule="evenodd" fill="#F0ECE0" d="M70.542,95.321c0.241,0.079,0.481,0.158,0.722,0.237l-0.04,0.046
			c-0.238-0.083-0.475-0.166-0.713-0.249L70.542,95.321z"/>
		<path fill-rule="evenodd" clip-rule="evenodd" fill="#F0ECE0" d="M68.841,94.626c-0.139-0.024-0.277-0.048-0.416-0.071
			c0.021-0.052,0.042-0.104,0.063-0.156c0.122,0.07,0.244,0.141,0.365,0.212L68.841,94.626z"/>
		<path fill-rule="evenodd" clip-rule="evenodd" fill="#F0ECE0" d="M70.035,95.114c-0.138-0.027-0.276-0.053-0.414-0.08
			c0.021-0.052,0.042-0.105,0.062-0.158c0.126,0.069,0.252,0.138,0.379,0.207L70.035,95.114z"/>
		<path fill-rule="evenodd" clip-rule="evenodd" fill="#F0ECE0" d="M68.854,94.611c0.139,0.024,0.277,0.048,0.416,0.072
			c-0.021,0.052-0.042,0.104-0.064,0.156c-0.122-0.071-0.244-0.142-0.365-0.213L68.854,94.611z"/>
		<path fill-rule="evenodd" clip-rule="evenodd" fill="#F0ECE0" d="M70.062,95.083c0.16,0.079,0.32,0.158,0.48,0.237l-0.031,0.035
			c-0.159-0.081-0.317-0.161-0.476-0.242L70.062,95.083z"/>
		<path fill-rule="evenodd" clip-rule="evenodd" fill="#F0ECE0" d="M68.065,94.301c-0.115,0-0.229,0-0.344,0
			c0.001-0.038,0.002-0.077,0.003-0.115c0.115,0.005,0.229,0.011,0.344,0.017C68.067,94.235,68.066,94.268,68.065,94.301z"/>
		<path fill-rule="evenodd" clip-rule="evenodd" fill="#B4B0A2" d="M189.888,145.721c0.98,0.996,1.016,2.422,1.761,3.695
			c-0.516,0.255-0.906,0.487-1.325,0.649c-3.286,1.268-6.721,2.021-10.127,2.865c-2.907,0.721-5.812,1.46-8.743,2.067
			c-1.891,0.392-3.826,0.575-5.745,0.821c-0.903,0.116-1.814,0.176-2.724,0.227c-0.295,0.017-0.596-0.075-0.893-0.117
			c-0.255-1.306-0.495-2.498-0.271-3.863c1.073-0.188,2.108-0.386,3.149-0.549c1.56-0.244,3.115-0.545,4.685-0.679
			c4-0.342,7.82-1.521,11.681-2.479C184.163,147.655,186.916,146.649,189.888,145.721z M162.528,155.494
			c8.328-0.259,16.138-2.841,24.079-4.744c1.478-0.354,2.895-0.96,4.341-1.451c-0.421-1.068-0.808-2.051-1.19-3.022
			c-0.39,0.136-0.683,0.25-0.983,0.341c-2.812,0.848-5.549,1.927-8.435,2.552c-3.324,0.72-6.561,1.828-9.981,2.126
			c-1.398,0.122-2.776,0.466-4.169,0.679c-1.31,0.2-2.626,0.359-3.95,0.538C162.34,153.549,162.431,154.482,162.528,155.494z"/>
		<path fill-rule="evenodd" clip-rule="evenodd" fill="#B1AD9E" d="M63.751,123.765c-0.565-0.385-1.33-0.336-1.639-1.173
			c0.551-1.171,0.631-2.651,1.626-3.772c0.677,0.214,1.274,0.404,1.813,0.575c4.241-2.491,7.512-1.239,9.139,3.43
			c0.583,0.362,1.436,0.26,1.796,1.028c-0.38,1.586-1.381,3.506-2.187,4.136c-0.45-0.155-0.931-0.32-1.408-0.484
			c-1.734,1.505-3.682,1.917-5.77,1.012C65.11,127.642,63.988,126.029,63.751,123.765z M76.003,123.94
			c-4.072-1.527-8.068-3.027-12.141-4.554c-0.404,1.078-0.8,2.131-1.226,3.267c2.008,0.825,3.946,1.685,5.931,2.417
			c1.962,0.725,3.793,1.831,5.821,2.221C74.952,126.123,75.448,125.094,76.003,123.94z M64.617,124.083
			c-0.121,1.724,1.08,3.354,2.804,4.021c1.803,0.698,3.719,0.345,4.781-0.926C69.694,126.155,67.204,125.139,64.617,124.083z
			 M66.292,119.685c1.309,0.509,2.545,1.007,3.795,1.471c1.223,0.453,2.46,0.87,3.756,1.326
			C73.569,119.646,69.384,117.168,66.292,119.685z"/>
		<path fill-rule="evenodd" clip-rule="evenodd" fill="#B1AD9E" d="M157.799,152.545c0.169,1.394,0.064,2.686,0.085,3.926
			c-2.445,1.029-24.19,0.058-26.788-1.163c-0.259-1.321,0.091-2.609,0.312-4.062c0.986,0.099,1.879,0.168,2.765,0.281
			c0.978,0.124,1.946,0.325,2.926,0.427c1.222,0.126,2.451,0.18,3.677,0.271c5.376,0.401,10.761,0.172,16.142,0.233
			C157.149,152.462,157.382,152.504,157.799,152.545z M157.354,152.939c-0.484,0-0.877,0-1.271,0c-3.314,0-6.629-0.018-9.943,0.005
			c-2.814,0.02-5.615-0.097-8.41-0.47c-1.966-0.264-3.948-0.398-5.93-0.591c-0.088,1.041-0.176,2.081-0.269,3.181
			c8.598,1.402,17.182,1.294,25.822,1.205C157.354,155.152,157.354,154.129,157.354,152.939z"/>
		<path fill-rule="evenodd" clip-rule="evenodd" fill="#B4B0A2" d="M123.171,149.27c-0.337,1.599-0.367,3.023-1.041,4.347
			c-0.294,0-0.543,0.057-0.755-0.008c-3.586-1.093-7.199-2.109-10.741-3.332c-2.873-0.992-5.664-2.226-8.481-3.377
			c-0.67-0.273-0.651-0.32-1.125-0.979c0.793-2.227,1.123-2.85,1.905-3.557c2.165,0.877,4.342,1.811,6.557,2.643
			c2.218,0.833,4.457,1.623,6.719,2.326C118.457,148.032,120.746,148.602,123.171,149.27z M122.568,149.741
			c-0.103-0.086-0.129-0.125-0.163-0.135c-2.525-0.71-5.069-1.359-7.572-2.139c-3.377-1.053-6.683-2.31-9.938-3.702
			c-0.643-0.275-1.27-0.85-2.032-0.632c-0.461,0.983-0.888,1.895-1.31,2.794c3.202,1.984,14.451,5.79,20.297,7.154
			C122.086,151.979,122.323,150.876,122.568,149.741z"/>
		<path fill-rule="evenodd" clip-rule="evenodd" fill="#B4B0A2" d="M97.355,144.663c-6.515-4.044-12.432-8.514-17.017-14.49
			c0.485-0.987,1.554-1.989,3.117-2.95c1.433,1.04,2.318,2.66,3.665,3.827c1.354,1.173,2.609,2.46,3.975,3.618
			c1.328,1.127,2.731,2.165,4.117,3.222c1.405,1.072,3.065,1.783,4.47,3.044C98.942,142.214,98.464,143.552,97.355,144.663z
			 M80.922,129.959c0.841,1.069,1.457,2.058,2.267,2.846c1.963,1.909,3.944,3.813,6.056,5.554c1.849,1.524,3.868,2.847,5.848,4.207
			c0.73,0.502,1.447,1.081,2.39,1.282c0.513-0.976,1.004-1.909,1.506-2.863c-1.4-0.927-2.836-1.823-4.212-2.803
			c-1.379-0.982-2.736-2.005-4.034-3.091c-1.338-1.119-2.633-2.296-3.875-3.521c-1.192-1.175-2.292-2.444-3.487-3.733
			C82.527,128.573,81.767,129.229,80.922,129.959z"/>
		<path fill-rule="evenodd" clip-rule="evenodd" fill="#B4B0A2" d="M199.033,147.271c-0.717-1.48-0.529-2.954-0.602-4.532
			c0.268-0.177,0.557-0.458,0.902-0.582c3.385-1.213,6.778-2.4,10.172-3.591c0.07-0.024,0.157-0.003,0.369-0.003
			c0.835,1.174,0.854,2.677,1.388,4.097c-0.318,0.24-0.563,0.53-0.872,0.64C206.67,144.619,202.938,145.911,199.033,147.271z
			 M210.639,142.584c-0.34-1.231-0.65-2.354-0.972-3.519c-3.625,1.304-7.188,2.586-10.687,3.844
			c0.095,1.316,0.179,2.489,0.268,3.727C203.02,145.294,206.774,143.959,210.639,142.584z"/>
		<path fill-rule="evenodd" clip-rule="evenodd" fill="#C0BAA8" d="M129.333,152.378c-0.014,1.282-0.984,2.178-2.264,2.266
			c-1.148,0.078-2.411-1.17-2.327-2.346c0.095-1.327,1.045-2.284,2.404-2.245C128.412,150.09,129.348,151.083,129.333,152.378z"/>
		<path fill-rule="evenodd" clip-rule="evenodd" fill="#B1AD9E" d="M233.728,141.722c-0.081,2.063-1.185,3.224-3.236,3.286
			c-1.771,0.053-3.197-1.353-3.243-3.168c-0.046-1.797,1.396-3.307,3.239-3.302C232.262,138.543,233.682,139.91,233.728,141.722z
			 M229.943,144.533c2.155,0.222,3.096-1.156,3.283-2.325c0.199-1.246-0.369-2.557-1.993-3.113c-1.348-0.462-2.615,0.297-3.5,2.083
			c0,0.388,0,0.787,0,1.186C227.997,143.549,228.842,144.148,229.943,144.533z"/>
		<path fill-rule="evenodd" clip-rule="evenodd" fill="#C0BAA8" d="M162.528,155.494c-0.098-1.012-0.188-1.945-0.289-2.982
			c1.324-0.179,2.641-0.338,3.95-0.538c1.393-0.213,2.771-0.557,4.169-0.679c3.421-0.298,6.657-1.406,9.981-2.126
			c2.886-0.625,5.623-1.704,8.435-2.552c0.301-0.091,0.594-0.205,0.983-0.341c0.383,0.972,0.77,1.954,1.19,3.022
			c-1.446,0.491-2.863,1.098-4.341,1.451C178.666,152.653,170.856,155.235,162.528,155.494z"/>
		<path fill-rule="evenodd" clip-rule="evenodd" fill="#C0BAA8" d="M76.003,123.94c-0.556,1.154-1.051,2.183-1.614,3.351
			c-2.028-0.39-3.859-1.496-5.821-2.221c-1.985-0.733-3.923-1.593-5.931-2.417c0.426-1.136,0.821-2.189,1.226-3.267
			C67.935,120.913,71.932,122.413,76.003,123.94z"/>
		<path fill-rule="evenodd" clip-rule="evenodd" fill="#C0BAA8" d="M64.617,124.083c2.587,1.056,5.077,2.071,7.585,3.095
			c-1.062,1.271-2.978,1.624-4.781,0.926C65.697,127.438,64.496,125.808,64.617,124.083z"/>
		<path fill-rule="evenodd" clip-rule="evenodd" fill="#C0BAA8" d="M66.292,119.685c3.092-2.516,7.278-0.039,7.552,2.796
			c-1.296-0.456-2.533-0.873-3.756-1.326C68.837,120.692,67.6,120.193,66.292,119.685z"/>
		<path fill-rule="evenodd" clip-rule="evenodd" fill="#C0BAA8" d="M157.354,152.939c0,1.189,0,2.213,0,3.33
			c-8.641,0.089-17.225,0.197-25.822-1.205c0.093-1.1,0.181-2.14,0.269-3.181c1.981,0.192,3.964,0.327,5.93,0.591
			c2.795,0.373,5.596,0.489,8.41,0.47c3.314-0.022,6.629-0.005,9.943-0.005C156.478,152.939,156.87,152.939,157.354,152.939z"/>
		<path fill-rule="evenodd" clip-rule="evenodd" fill="#C0BAA8" d="M122.568,149.741c-0.245,1.135-0.482,2.237-0.719,3.341
			c-5.846-1.364-17.095-5.17-20.297-7.154c0.422-0.899,0.849-1.811,1.31-2.794c0.763-0.218,1.389,0.356,2.032,0.632
			c3.256,1.393,6.561,2.649,9.938,3.702c2.503,0.779,5.047,1.429,7.572,2.139C122.439,149.616,122.465,149.655,122.568,149.741z"/>
		<path fill-rule="evenodd" clip-rule="evenodd" fill="#C0BAA8" d="M80.922,129.959c0.845-0.729,1.604-1.386,2.458-2.123
			c1.196,1.289,2.295,2.558,3.487,3.733c1.242,1.226,2.537,2.402,3.875,3.521c1.298,1.086,2.655,2.108,4.034,3.091
			c1.376,0.979,2.812,1.876,4.212,2.803c-0.502,0.954-0.993,1.888-1.506,2.863c-0.943-0.201-1.66-0.78-2.39-1.282
			c-1.979-1.36-3.999-2.683-5.848-4.207c-2.111-1.74-4.093-3.645-6.056-5.554C82.379,132.017,81.763,131.028,80.922,129.959z"/>
		<path fill-rule="evenodd" clip-rule="evenodd" fill="#C0BAA8" d="M210.639,142.584c-3.864,1.375-7.619,2.71-11.391,4.052
			c-0.089-1.237-0.173-2.41-0.268-3.727c3.498-1.258,7.062-2.54,10.687-3.844C209.988,140.229,210.299,141.353,210.639,142.584z"/>
		<path fill-rule="evenodd" clip-rule="evenodd" fill="#C0BAA8" d="M229.943,144.533c-1.102-0.385-1.946-0.984-2.21-2.17
			c0-0.398,0-0.798,0-1.186c0.885-1.786,2.152-2.545,3.5-2.083c1.624,0.557,2.192,1.867,1.993,3.113
			C233.039,143.377,232.099,144.755,229.943,144.533z"/>
	</g>
</g>
</svg>
